<?xml version="1.0" standalone="no"?>
<!DOCTYPE svg PUBLIC "-//W3C//DTD SVG 20010904//EN"
 "http://www.w3.org/TR/2001/REC-SVG-20010904/DTD/svg10.dtd">
<svg version="1.0" xmlns="http://www.w3.org/2000/svg"
 width="545.000000pt" height="90.000000pt" viewBox="0 0 545.000000 90.000000"
 preserveAspectRatio="xMidYMid meet">

<g transform="translate(0.000000,90.000000) scale(0.100000,-0.100000)"
fill="#000000" stroke="none">
<path d="M2370 745 l0 -155 -299 0 c-201 0 -302 4 -306 11 -4 5 0 18 9 28 9
10 19 35 23 54 5 31 1 40 -25 67 -25 24 -39 30 -74 30 -24 0 -62 -9 -85 -20
-37 -16 -43 -23 -43 -49 0 -20 6 -32 18 -35 10 -4 32 -20 48 -37 28 -29 28
-31 9 -41 -36 -20 -85 -76 -85 -96 0 -58 40 -82 140 -82 38 0 70 4 70 9 0 5 3
16 6 24 4 12 -7 15 -65 13 -56 -1 -74 3 -88 17 -17 18 -17 20 21 53 43 37 59
40 96 19 21 -12 136 -14 719 -15 632 0 696 1 713 17 17 15 19 15 39 -3 22 -20
23 -20 267 -16 l152 2 -2 178 c-3 175 -3 177 -25 180 l-23 3 0 -155 0 -156
-94 0 -95 0 8 28 c21 71 -48 148 -123 139 -52 -7 -95 -50 -103 -102 -9 -62
-15 -65 -119 -65 l-94 0 10 26 c34 88 -15 164 -106 164 -28 0 -44 -8 -71 -35
-34 -34 -35 -38 -31 -95 l4 -60 -53 0 -53 0 0 38 c0 56 -18 110 -43 127 -12 8
-39 15 -60 15 -31 0 -46 -8 -87 -46 l-50 -47 0 112 0 111 -25 0 -25 0 0 -155z
m535 -25 c27 -30 25 -97 -4 -121 -30 -25 -37 -24 -66 6 -32 31 -34 86 -5 115
25 25 52 25 75 0z m-1165 -10 c8 -15 7 -27 -5 -50 l-16 -31 -27 29 c-15 15
-36 34 -47 40 -17 10 -18 13 -5 22 27 18 88 12 100 -10z m838 4 c18 -12 22
-25 22 -70 l0 -54 -85 0 c-47 0 -85 4 -85 8 0 19 64 104 89 117 33 18 32 18
59 -1z m754 -21 c18 -16 24 -68 10 -89 -38 -58 -135 -16 -118 51 13 52 70 72
108 38z"/>
<path d="M3710 720 l0 -180 25 0 25 0 0 180 0 180 -25 0 -25 0 0 -180z"/>
<path d="M4870 720 l0 -180 25 0 25 0 0 180 0 180 -25 0 -25 0 0 -180z"/>
<path d="M2810 844 c-11 -12 -11 -18 2 -30 8 -8 22 -12 31 -8 21 8 22 40 1 48
-21 8 -20 8 -34 -10z"/>
<path d="M2882 847 c-9 -10 -9 -18 1 -31 17 -23 49 -11 45 18 -4 25 -30 32
-46 13z"/>
<path d="M3957 854 c-12 -12 -8 -42 6 -47 21 -8 39 8 35 29 -3 19 -29 30 -41
18z"/>
<path d="M4027 853 c-12 -12 -7 -41 8 -47 19 -7 46 20 39 39 -6 15 -35 20 -47
8z"/>
<path d="M10 646 l0 -186 488 0 487 1 -35 29 c-19 17 -75 57 -123 90 -207 141
-458 226 -725 246 l-92 7 0 -187z"/>
<path d="M3962 754 c-31 -21 -52 -66 -52 -110 0 -28 8 -44 34 -70 l34 -34 411
0 412 0 -3 113 -3 112 -25 0 c-25 0 -25 -2 -28 -87 l-3 -88 -314 0 -315 0 0
90 0 90 -63 0 c-40 0 -70 -5 -85 -16z m98 -94 l0 -70 -34 0 c-41 0 -60 21 -60
65 0 43 28 75 66 75 l28 0 0 -70z"/>
<path d="M5010 741 c-76 -76 -32 -201 71 -201 44 0 47 -7 20 -41 -17 -21 -28
-24 -80 -23 -62 1 -69 -4 -55 -40 4 -11 19 -16 49 -16 78 0 138 36 150 91 l7
29 129 0 129 0 0 115 0 115 -25 0 c-25 0 -25 -1 -25 -90 l0 -90 -105 0 -105 0
0 90 0 90 -66 0 c-59 0 -68 -3 -94 -29z m110 -81 l0 -70 -34 0 c-41 0 -58 18
-59 66 -1 42 29 74 69 74 23 0 24 -3 24 -70z"/>
<path d="M4707 486 c-9 -22 19 -42 37 -26 19 15 10 40 -14 40 -10 0 -20 -6
-23 -14z"/>
<path d="M5352 478 c2 -15 10 -23 23 -23 30 0 27 39 -3 43 -20 3 -23 0 -20
-20z"/>
<path d="M395 351 c53 -51 193 -140 310 -197 187 -91 369 -138 560 -146 l80
-3 3 183 2 182 -487 0 c-480 0 -487 0 -468 -19z"/>
<path d="M2310 302 c-72 -36 -103 -138 -65 -212 33 -64 127 -96 197 -67 32 14
37 13 52 -1 16 -16 18 -16 32 3 12 16 12 21 0 33 -12 12 -12 19 0 48 19 45 17
81 -5 131 -34 74 -133 104 -211 65z m141 -61 c23 -24 29 -38 29 -74 0 -55 -8
-63 -37 -35 -22 20 -25 21 -40 5 -16 -15 -15 -18 5 -40 26 -28 20 -37 -24 -37
-65 0 -119 77 -99 141 23 70 113 92 166 40z"/>
<path d="M3365 309 c-63 -20 -105 -79 -105 -149 0 -120 127 -188 240 -130 l40
20 0 65 0 65 -65 0 c-63 0 -65 -1 -65 -25 0 -22 4 -25 40 -25 36 0 40 -3 40
-25 0 -30 -26 -45 -77 -45 -49 0 -78 21 -93 65 -15 44 1 96 37 125 31 24 67
25 107 5 28 -15 31 -14 49 4 19 19 19 19 -11 35 -40 21 -100 27 -137 15z"/>
<path d="M1560 160 l0 -150 25 0 c24 0 24 1 27 102 l3 102 44 -67 c24 -37 45
-67 46 -67 1 0 22 30 46 67 l44 67 3 -102 c3 -101 3 -102 27 -102 l25 0 0 150
0 150 -25 0 c-20 0 -34 -14 -71 -70 -25 -38 -46 -70 -48 -70 -1 0 -23 32 -47
70 -37 59 -48 70 -71 70 l-28 0 0 -150z"/>
<path d="M1978 177 c-32 -74 -60 -141 -64 -150 -5 -13 0 -17 20 -17 20 0 29 8
40 35 l15 35 71 0 71 0 15 -35 c11 -27 20 -35 39 -35 14 0 25 3 25 6 0 3 -28
71 -62 150 -57 131 -64 144 -88 144 -23 0 -30 -12 -82 -133z m111 1 l20 -48
-49 0 -50 0 16 38 c9 20 19 45 21 55 7 24 17 13 42 -45z"/>
<path d="M2577 303 c-4 -3 -7 -15 -7 -25 0 -15 8 -18 50 -18 l50 0 0 -125 0
-125 25 0 25 0 0 125 0 125 50 0 c47 0 50 2 50 25 l0 25 -118 0 c-65 0 -122
-3 -125 -7z"/>
<path d="M2927 278 c-8 -18 -32 -71 -52 -118 -74 -168 -69 -150 -37 -150 23 0
30 6 41 35 l12 35 74 0 73 0 12 -35 c10 -29 16 -35 40 -35 l29 0 -29 68 c-96
224 -98 227 -124 230 -20 3 -28 -3 -39 -30z m82 -140 c1 -5 -19 -8 -44 -8 -25
0 -45 4 -45 9 0 5 10 30 22 57 l21 49 23 -50 c13 -27 23 -53 23 -57z"/>
<path d="M3658 177 c-32 -74 -60 -141 -64 -150 -5 -13 0 -17 20 -17 20 0 29 8
40 35 l15 35 71 0 71 0 15 -35 c11 -27 20 -35 39 -35 14 0 25 3 25 6 0 3 -28
71 -62 150 -57 131 -64 144 -88 144 -23 0 -30 -12 -82 -133z m111 1 l20 -48
-49 0 -50 0 16 38 c9 20 19 45 21 55 7 24 17 13 42 -45z"/>
<path d="M3880 285 c0 -23 4 -25 45 -25 l45 0 0 -125 0 -125 30 0 30 0 0 125
0 125 45 0 c41 0 45 2 45 25 l0 25 -120 0 -120 0 0 -25z"/>
<path d="M4170 160 l0 -150 115 0 c108 0 115 1 115 20 0 17 -8 19 -87 22 l-88
3 -3 38 -3 37 75 0 c74 0 76 1 76 25 0 24 -2 25 -75 25 l-75 0 0 40 0 40 85 0
c84 0 85 0 85 25 l0 25 -110 0 -110 0 0 -150z"/>
<path d="M4451 298 c0 -7 21 -74 48 -148 42 -121 50 -135 72 -138 23 -3 27 4
57 98 19 55 38 98 43 95 5 -4 9 -10 9 -15 0 -5 14 -47 31 -94 26 -74 34 -86
54 -86 20 0 28 15 70 137 27 76 50 144 53 151 3 8 -6 12 -24 12 -28 0 -30 -4
-62 -106 -18 -58 -35 -104 -38 -101 -2 2 -19 49 -38 103 -29 87 -36 99 -57
102 -24 3 -27 -3 -58 -104 -18 -59 -36 -103 -41 -98 -4 5 -21 52 -38 104 -26
87 -31 95 -55 98 -18 2 -27 -1 -26 -10z"/>
<path d="M4948 178 c-78 -180 -74 -168 -46 -168 18 0 29 9 41 35 l17 35 70 0
70 0 14 -35 c12 -28 21 -35 42 -35 31 0 34 -14 -44 167 -51 119 -60 133 -82
133 -23 0 -31 -13 -82 -132z m111 0 l20 -48 -49 0 -50 0 16 38 c9 20 19 45 21
55 7 24 17 13 42 -45z"/>
<path d="M5170 295 c0 -2 25 -43 55 -90 50 -77 55 -90 55 -140 0 -52 1 -55 25
-55 24 0 25 3 25 55 0 50 5 63 55 140 30 47 55 88 55 90 0 3 -13 5 -28 5 -23
0 -34 -9 -61 -55 -19 -31 -37 -58 -42 -60 -4 -3 -24 22 -45 55 -31 51 -41 60
-65 60 -16 0 -29 -2 -29 -5z"/>
</g>
</svg>
